<?xml version="1.0" encoding="UTF-8" standalone="no"?>
<svg
   width="1024"
   height="500"
   viewBox="0 0 960.98461 500"
   fill="none"
   version="1.1"
   id="svg193"
   sodipodi:docname="hanstodon_graphic_b.svg"
   inkscape:version="1.2.1 (9c6d41e, 2022-07-14)"
   inkscape:export-filename="hanstodon_icon_graphic.png"
   inkscape:export-xdpi="96"
   inkscape:export-ydpi="96"
   xmlns:inkscape="http://www.inkscape.org/namespaces/inkscape"
   xmlns:sodipodi="http://sodipodi.sourceforge.net/DTD/sodipodi-0.dtd"
   xmlns:xlink="http://www.w3.org/1999/xlink"
   xmlns="http://www.w3.org/2000/svg"
   xmlns:svg="http://www.w3.org/2000/svg">
  <sodipodi:namedview
     id="namedview195"
     pagecolor="#ffffff"
     bordercolor="#111111"
     borderopacity="1"
     inkscape:showpageshadow="0"
     inkscape:pageopacity="0"
     inkscape:pagecheckerboard="1"
     inkscape:deskcolor="#d1d1d1"
     showgrid="false"
     inkscape:zoom="0.70710678"
     inkscape:cx="260.9224"
     inkscape:cy="347.18943"
     inkscape:window-width="2109"
     inkscape:window-height="1205"
     inkscape:window-x="0"
     inkscape:window-y="25"
     inkscape:window-maximized="0"
     inkscape:current-layer="svg193" />
  <path
     id="rect1171"
     style="fill:url(#linearGradient1179);stroke-width:21.3404"
     d="M 992.49232,0 V 500 H -31.507714 V 0 Z" />
  <defs
     id="defs191">
    <linearGradient
       inkscape:collect="always"
       id="linearGradient1177">
      <stop
         style="stop-color:#f4845f;stop-opacity:1;"
         offset="0"
         id="stop1173" />
      <stop
         style="stop-color:#f27059;stop-opacity:1;"
         offset="1"
         id="stop1175" />
    </linearGradient>
    <linearGradient
       id="paint0_linear_89_8"
       x1="30.5"
       y1="0"
       x2="30.5"
       y2="65"
       gradientUnits="userSpaceOnUse">
      <stop
         stop-color="#6364FF"
         id="stop186"
         offset="0"
         style="stop-color:#f4845f;stop-opacity:1;" />
      <stop
         offset="1"
         stop-color="#563ACC"
         id="stop188"
         style="stop-color:#f27059;stop-opacity:1;" />
    </linearGradient>
    <linearGradient
       inkscape:collect="always"
       xlink:href="#linearGradient1177"
       id="linearGradient1179"
       x1="-118.18033"
       y1="32.222588"
       x2="-15.784111"
       y2="32.222588"
       gradientUnits="userSpaceOnUse"
       gradientTransform="matrix(0,4.8829926,-10.3627,0,814.40529,577.07367)" />
  </defs>
  <text
     xml:space="preserve"
     style="font-size:40px;line-height:1.25;font-family:'Noto Sans KR';-inkscape-font-specification:'Noto Sans KR'"
     x="27.895401"
     y="36.787453"
     id="text523"><tspan
       sodipodi:role="line"
       id="tspan521"
       x="27.895401"
       y="36.787453" /></text>
  <g
     id="g9199"
     transform="translate(317.70931,186)">
    <g
       id="g2542"
       transform="scale(1.9692319)" />
  </g>
  <g
     id="g6917">
    <path
       d="M 60.7539,14.3904 C 59.8143,7.40642 53.7273,1.90257 46.5117,0.836066 45.2943,0.655854 40.6819,0 29.9973,0 H 29.9175 C 19.2299,0 16.937,0.655854 15.7196,0.836066 8.70488,1.87302 2.29885,6.81852 0.744617,13.8852 -0.00294988,17.3654 -0.0827298,21.2237 0.0561464,24.7629 0.254119,29.8384 0.292531,34.905 0.753482,39.9598 c 0.318668,3.3577 0.874578,6.6886 1.663558,9.9678 1.47741,6.0563 7.45795,11.0963 13.31736,13.1525 6.2733,2.1443 13.0198,2.5003 19.484,1.0281 0.7111,-0.1654 1.4134,-0.3574 2.1068,-0.5761 1.5719,-0.4992 3.4128,-1.0576 4.7661,-2.0384 0.0186,-0.0138 0.0338,-0.0316 0.0445,-0.052 0.0108,-0.0205 0.0168,-0.0431 0.0176,-0.0662 v -4.8982 c -4e-4,-0.0216 -0.0055,-0.0428 -0.0151,-0.0622 -0.0096,-0.0193 -0.0234,-0.0363 -0.0404,-0.0496 -0.017,-0.0133 -0.0368,-0.0226 -0.0579,-0.0273 -0.021,-0.0047 -0.0429,-0.0046 -0.0639,2e-4 -4.1416,0.9892 -8.3856,1.485 -12.6437,1.4772 -7.3279,0 -9.2988,-3.4772 -9.8631,-4.9248 -0.4537,-1.2511 -0.7418,-2.5562 -0.8569,-3.882 -0.0012,-0.0222 0.0029,-0.0445 0.0119,-0.0649 0.009,-0.0203 0.0227,-0.0383 0.04,-0.0524 0.0173,-0.0141 0.0376,-0.024 0.0594,-0.0287 0.0218,-0.0048 0.0444,-0.0043 0.066,0.0013 4.0725,0.9824 8.2473,1.4782 12.4368,1.4771 1.0075,0 2.0122,0 3.0198,-0.0266 4.2135,-0.1182 8.6546,-0.3338 12.8002,-1.1433 0.1034,-0.0207 0.2069,-0.0384 0.2955,-0.065 6.539,-1.2556 12.7618,-5.1966 13.3942,-15.1762 0.0236,-0.3929 0.0827,-4.1153 0.0827,-4.523 0.0029,-1.3856 0.4462,-9.829 -0.065,-15.0167 z"
       fill="url(#paint0_linear_89_8)"
       id="path182"
       style="fill:#ffffff;fill-opacity:1"
       transform="matrix(1.9692319,0,0,1.9692319,317.70931,186)" />
    <text
       xml:space="preserve"
       style="font-size:40px;line-height:1.25;font-family:'Noto Sans KR';-inkscape-font-specification:'Noto Sans KR';fill:#f27059;fill-opacity:1;stroke:none"
       x="15.63142"
       y="39.613396"
       id="text579"
       transform="matrix(1.9692319,0,0,1.9692319,317.70931,186)"><tspan
         sodipodi:role="line"
         id="tspan577"
         x="15.63142"
         y="39.613396"
         style="font-style:normal;font-variant:normal;font-weight:bold;font-stretch:normal;font-family:'Noto Sans KR';-inkscape-font-specification:'Noto Sans KR Bold';fill:#f27059;fill-opacity:1">漢 <tspan
   style="fill:#ffffff;fill-opacity:1"
   id="tspan3633">스토돈</tspan></tspan></text>
    <circle
       style="fill:#f27059;fill-opacity:1;stroke-width:3.00001"
       id="path576"
       cx="340.83331"
       cy="218.101"
       r="6" />
  </g>
</svg>
