<?xml version="1.0" encoding="UTF-8" standalone="no"?>
<!-- Created with Inkscape (http://www.inkscape.org/) -->

<svg
   width="512"
   height="512"
   viewBox="0 0 135.46666 135.46667"
   version="1.1"
   id="svg1409"
   inkscape:export-filename="ic_launcher_foreground.png"
   inkscape:export-xdpi="96"
   inkscape:export-ydpi="96"
   sodipodi:docname="ic_launcher_foreground.svg"
   inkscape:version="1.2.1 (9c6d41e, 2022-07-14)"
   xmlns:inkscape="http://www.inkscape.org/namespaces/inkscape"
   xmlns:sodipodi="http://sodipodi.sourceforge.net/DTD/sodipodi-0.dtd"
   xmlns="http://www.w3.org/2000/svg"
   xmlns:svg="http://www.w3.org/2000/svg">
  <sodipodi:namedview
     id="namedview1411"
     pagecolor="#ffffff"
     bordercolor="#111111"
     borderopacity="1"
     inkscape:showpageshadow="0"
     inkscape:pageopacity="0"
     inkscape:pagecheckerboard="1"
     inkscape:deskcolor="#d1d1d1"
     inkscape:document-units="mm"
     showgrid="false"
     inkscape:zoom="1"
     inkscape:cx="267.5"
     inkscape:cy="262.5"
     inkscape:window-width="1390"
     inkscape:window-height="1205"
     inkscape:window-x="0"
     inkscape:window-y="25"
     inkscape:window-maximized="0"
     inkscape:current-layer="g9199" />
  <defs
     id="defs1406" />
  <g
     inkscape:label="Layer 1"
     inkscape:groupmode="layer"
     id="layer1">
    <g
       id="g9199"
       transform="matrix(1.984375,0,0,1.984375,7.2098921,3.2411826)">
      <g
         id="g2002"
         transform="matrix(0.45,0,0,0.45,16.775001,17.87499)">
        <path
           d="M 60.7539,14.3904 C 59.8143,7.40642 53.7273,1.90257 46.5117,0.836066 45.2943,0.655854 40.6819,0 29.9973,0 H 29.9175 C 19.2299,0 16.937,0.655854 15.7196,0.836066 8.70488,1.87302 2.29885,6.81852 0.744617,13.8852 -0.00294988,17.3654 -0.0827298,21.2237 0.0561464,24.7629 0.254119,29.8384 0.292531,34.905 0.753482,39.9598 c 0.318668,3.3577 0.874578,6.6886 1.663558,9.9678 1.47741,6.0563 7.45795,11.0963 13.31736,13.1525 6.2733,2.1443 13.0198,2.5003 19.484,1.0281 0.7111,-0.1654 1.4134,-0.3574 2.1068,-0.5761 1.5719,-0.4992 3.4128,-1.0576 4.7661,-2.0384 0.0186,-0.0138 0.0338,-0.0316 0.0445,-0.052 0.0108,-0.0205 0.0168,-0.0431 0.0176,-0.0662 v -4.8982 c -4e-4,-0.0216 -0.0055,-0.0428 -0.0151,-0.0622 -0.0096,-0.0193 -0.0234,-0.0363 -0.0404,-0.0496 -0.017,-0.0133 -0.0368,-0.0226 -0.0579,-0.0273 -0.021,-0.0047 -0.0429,-0.0046 -0.0639,2e-4 -4.1416,0.9892 -8.3856,1.485 -12.6437,1.4772 -7.3279,0 -9.2988,-3.4772 -9.8631,-4.9248 -0.4537,-1.2511 -0.7418,-2.5562 -0.8569,-3.882 -0.0012,-0.0222 0.0029,-0.0445 0.0119,-0.0649 0.009,-0.0203 0.0227,-0.0383 0.04,-0.0524 0.0173,-0.0141 0.0376,-0.024 0.0594,-0.0287 0.0218,-0.0048 0.0444,-0.0043 0.066,0.0013 4.0725,0.9824 8.2473,1.4782 12.4368,1.4771 1.0075,0 2.0122,0 3.0198,-0.0266 4.2135,-0.1182 8.6546,-0.3338 12.8002,-1.1433 0.1034,-0.0207 0.2069,-0.0384 0.2955,-0.065 6.539,-1.2556 12.7618,-5.1966 13.3942,-15.1762 0.0236,-0.3929 0.0827,-4.1153 0.0827,-4.523 0.0029,-1.3856 0.4462,-9.829 -0.065,-15.0167 z"
           fill="url(#paint0_linear_89_8)"
           id="path182"
           style="fill:#ffffff;fill-opacity:1" />
        <g
           aria-label="漢"
           id="text579"
           style="font-size:40px;line-height:1.25;font-family:'Noto Sans KR';-inkscape-font-specification:'Noto Sans KR';fill:#f27059">
          <path
             d="m 17.162052,27.731551 c -2,4.68 -4.6,9.72 -6.44,12.8 l 4.28,2.8 c 2.04,-3.88 4.16,-8.48 5.92,-12.76 z m 2.08,-6.76 c -1.52,-1.28 -4.56,-2.8 -6.92,-3.64 l -2.5600002,3.56 c 2.3600002,1.04 5.3200002,2.72 6.7200002,4.04 z m 7.72,2.48 v -2.04 h 4.36 v 2.04 z m 13.48,-2.04 v 2.04 h -4.56 v -2.04 z m -9.76,-9.04 h 5.72 v 1.72 h -5.72 z m 16.24,24.44 v -3.52 h -11.48 c 0.16,-0.56 0.24,-1.12 0.32,-1.72 h 9.52 v -3.52 h -9.4 v -1.56 h 9.08 v -8.12 h -9.08 v -1.28 h 4.96 v -4.72 h 5.96 V 8.7315506 h -5.96 v -2.32 h -4.44 v 2.32 h -5.72 v -2.32 h -4.2 v 2.32 h -5.2 v 1.6000004 c -1.56,-1.2800004 -4.52,-2.8400004 -6.8,-3.7600004 l -2.68,3.6000004 c 2.4,1.04 5.4,2.84 6.84,4.2 l 2.64,-3.76 v 1.76 h 5.2 v 4.72 h 4.84 v 1.28 h -8.64 v 8.12 h 8.64 v 1.56 h -8.88 v 3.52 h 8.72 c -0.08,0.6 -0.24,1.16 -0.4,1.72 h -9.8 v 3.52 h 7.44 c -1.68,1.48 -4.32,2.68 -8.36,3.48 0.96,0.88 2.24,2.6 2.76,3.6 5.76,-1.44 9.12,-3.76 10.96,-6.6 2.36,3.44 5.92,5.6 11.16,6.6 0.56,-1.24 1.76,-3 2.72,-3.88 -3.88,-0.48 -6.92,-1.52 -9.04,-3.2 z"
             style="font-weight:bold;-inkscape-font-specification:'Noto Sans KR Bold'"
             id="path1942" />
        </g>
      </g>
    </g>
  </g>
</svg>
